HIERARCHY
ROOT hip
{
  OFFSET 0.0 0.0 0.0
  CHANNELS 6 Xposition Yposition Zposition Zrotation Yrotation Xrotation
  JOINT torso
  {
    OFFSET 0.0 0.0 0.0
    CHANNELS 3 Zrotation Xrotation Yrotation
    JOINT neck
    {
      OFFSET -8.600829999999974 327.7417449999999 60.895874000000276
      CHANNELS 3 Zrotation Xrotation Yrotation
      JOINT head
      {
        OFFSET 0.7211610000001087 266.848846 239.12060599999995
        CHANNELS 3 Zrotation Xrotation Yrotation
        End Site
        {
          OFFSET 0.0 0.0 0.0
        }
      }
    }
    JOINT left_collar
    {
      OFFSET -8.600829999999974 327.7417449999999 60.895874000000276
      CHANNELS 3 Zrotation Xrotation Yrotation
      JOINT left_upper_arm
      {
        OFFSET -122.29599000000002 -5.21875 31.800903999999946
        CHANNELS 3 Zrotation Xrotation Yrotation
        JOINT left_forearm
        {
          OFFSET -195.94708199999997 63.423126000000025 226.99352999999996
          CHANNELS 3 Zrotation Xrotation Yrotation
          JOINT left_hand
          {
            OFFSET -232.19226099999992 28.282164999999964 80.86950699999989
            CHANNELS 3 Zrotation Xrotation Yrotation
            End Site
            {
              OFFSET 0.0 0.0 0.0
            }
          }
        }
      }
    }
    JOINT right_collar
    {
      OFFSET -8.600829999999974 327.7417449999999 60.895874000000276
      CHANNELS 3 Zrotation Xrotation Yrotation
      JOINT right_upper_arm
      {
        OFFSET 168.41261300000002 -11.913361000000066 -9.389160000000174
        CHANNELS 3 Zrotation Xrotation Yrotation
        JOINT right_forearm
        {
          OFFSET 213.49279800000005 104.82293699999997 83.52258300000017
          CHANNELS 3 Zrotation Xrotation Yrotation
          JOINT right_hand
          {
            OFFSET 222.067185 62.005675999999994 -110.52026300000034
            CHANNELS 3 Zrotation Xrotation Yrotation
            End Site
            {
              OFFSET 0.0 0.0 0.0
            }
          }
        }
      }
    }
  }
}
MOTION
Frames: 9
Frame Time: 0.01
-438.47537099154533 141.14831800460794 381.48398206470193 10.973533948976268 -12.054527502428407 -17.48291973221825 -0.11458831197403842 6.896488623034019 0.1977968487979649 -16.092159458173093 -10.654627824846298 14.740258404097219 0.0 0.0 0.0 -0.4469772125204721 -0.3327761702575749 5.6928026146622965 52.62401398889563 43.69864894018843 19.241517085217634 35.851405382438 18.183613652271333 -23.552835903358634 0.0 0.0 0.0 -3.5413411998103204 -0.31685341006023043 -1.1655494617642395 -31.599201746576114 1.0946231431018887 52.08272715276264 15.654488497483081 -2.899762400722319 25.855456865690197 0.0 0.0 0.0
-438.4607818733921 141.1834321563515 381.6601403823918 10.954388005709111 -12.047283858799872 -17.506223838837556 -0.11385447807948361 6.894516544856025 0.19765253032913102 -16.091986867931226 -10.661881981165033 14.740287274055254 0.0 0.0 0.0 -0.43685807831939905 -0.33140604269828966 5.7121433532112125 52.63521914630182 43.71914736924084 19.210478466031194 35.809907997522934 18.147642373544958 -23.511657386771176 0.0 0.0 0.0 -3.5303488478722405 -0.31592716409657856 -1.1636204502035619 -31.66628514423864 1.1457756320119807 52.14189625853062 15.68838367013879 -2.824096229470153 25.68538591570411 0.0 0.0 0.0
-438.46707049899805 141.21823978769643 381.8306022863005 10.93381444786464 -12.03975030806829 -17.523108925560308 -0.11348500241496291 6.891577995497018 0.19752935943270586 -16.089377976249633 -10.668572936387587 14.738068409599862 0.0 0.0 0.0 -0.42548600597661995 -0.329754811008416 5.730820395062429 52.64936068547201 43.74376778370212 19.174347820784426 35.765752552018554 18.10751610478614 -23.46079676088465 0.0 0.0 0.0 -3.52072215301904 -0.31521888125967173 -1.1629375051844388 -31.785874683088974 1.252885996393847 52.18811079263593 15.718724889968245 -2.7511345149755417 25.52033993014275 0.0 0.0 0.0
-438.4941826805798 141.252617289916 381.99437467621146 10.911736986298553 -12.031642864483866 -17.533372329843736 -0.11363282381273546 6.887447906015362 0.19744093710726435 -16.08401477670605 -10.674455596318946 14.733303945771837 0.0 0.0 0.0 -0.41297410300988346 -0.3278332246722313 5.7484884866979575 52.666327489376734 43.77214362010056 19.13384166141355 35.719554443647006 18.06377804292035 -23.40082211693222 0.0 0.0 0.0 -3.513042097511289 -0.3147704619662927 -1.163537006596751 -31.965316022843126 1.4246258479789617 52.21608746741272 15.743835017431428 -2.6841366622585987 25.367390031591658 0.0 0.0 0.0
-438.54204233606436 141.2863782860401 382.15041440899404 10.888106653469656 -12.022698524886657 -17.536788159025715 -0.11446086614691695 6.881920916920405 0.1974026955386894 -16.075590908053236 -10.679288024740943 14.725706799527005 0.0 0.0 0.0 -0.39947399737552064 -0.32565737447614956 5.764740826137085 52.68600785930606 43.803875187362 19.08975489254155 35.67200116887806 18.017031623594782 -23.332370584908645 0.0 0.0 0.0 -3.50793389616413 -0.31462727720566463 -1.1654594083262075 -32.21169536775484 1.6694235261103905 52.219569566190444 15.761783365020195 -2.6268788756335963 25.234686747521923 0.0 0.0 0.0
-438.61056197360256 141.3192766455699 382.29764416667234 10.862900586190655 -12.012683478657655 -17.53310963289828 -0.11613877178403766 6.874820202889599 0.19743174240765818 -16.063814621698626 -10.682843806680362 14.715003725155167 0.0 0.0 0.0 -0.3851762346820147 -0.3232489503843801 5.779115946610744 52.70830171252146 43.83854328213391 19.042946887358564 35.62383504888815 17.96791766623056 -23.256106754106813 0.0 0.0 0.0 -3.50605914528301 -0.31483773320111846 -1.168749279095316 -32.531729948901706 1.9952469027500117 52.19119306370652 15.770221548167001 -2.583686586644202 25.131452668347446 0.0 0.0 0.0
-438.69965216431353 141.35101093711583 382.43496967022793 10.836119187444467 -12.001400711751504 -17.52207405889438 -0.11883923495532289 6.866006057372882 0.19754665099798704 -16.048411799841954 -10.684924807598609 14.700938426126438 0.0 0.0 0.0 -0.37030897497531085 -0.32063528971625255 5.791107827676657 52.733131547852196 43.87572218964736 18.99432717773947 35.57583569217643 17.917092946883514 -23.17268598619547 0.0 0.0 0.0 -3.5081056992361397 -0.3154525574886161 -1.1734539639053332 -32.931680430381824 2.4093681376294813 52.1223573622146 15.76615853950789 -2.559461695406869 25.06794206338981 0.0 0.0 0.0
-438.80922980117674 141.381230150458 382.56129783592104 10.807781898387006 -11.988696910634676 -17.503410341963427 -0.12273415705111505 6.855384076085736 0.19776721642894518 -16.02912897477938 -10.685373816027786 14.683274662988287 0.0 0.0 0.0 -0.35513473453698247 -0.3178491670538373 5.800178972851742 52.76045154396097 43.914991740803224 18.944840555367733 35.528802359885674 17.86521055224281 -23.08272338332203 0.0 0.0 0.0 -3.5147754322516995 -0.31652381665099827 -1.179620884007546 -33.417289501647545 2.9181092671986026 52.00311070678824 15.745674031101142 -2.5596968517399867 25.05535827827573 0.0 0.0 0.0
-438.9392249635126 141.40954052507163 382.67555545800366 10.777921913571777 -11.97446863349712 -17.47684876315165 -0.12799086193297232 6.842912807505005 0.19811420024317286 -16.005736278011536 -10.684086497389425 14.661799275176174 0.0 0.0 0.0 -0.339945001602986 -0.31492828689698715 5.805776023281305 52.790254208911975 43.95594814566286 18.895451325908226 35.48353640217857 17.81290225662523 -22.98676888847929 0.0 0.0 0.0 -3.526770217321347 -0.31810369982140135 -1.187293640587614 -33.99374858130663 3.526567305395191 51.82206193808757 15.703574569274608 -2.5904649613505466 25.10571884272628 0.0 0.0 0.0
